<?xml version="1.0" encoding="iso-8859-1"?>
<!-- Generator: Adobe Illustrator 18.0.0, SVG Export Plug-In . SVG Version: 6.00 Build 0)  -->
<!DOCTYPE svg PUBLIC "-//W3C//DTD SVG 1.1//EN" "http://www.w3.org/Graphics/SVG/1.1/DTD/svg11.dtd">
<svg version="1.1" id="Capa_1" xmlns="http://www.w3.org/2000/svg" xmlns:xlink="http://www.w3.org/1999/xlink" x="0px" y="0px"
	 viewBox="0 0 241.334 241.334" style="enable-background:new 0 0 241.334 241.334;" xml:space="preserve">
<path d="M220.667,141.334c-6.695,0-12.641-3.215-16.419-8.167h-63.081v8h-41v-5.953c-12.156,2.645-21.912,7.847-29.1,15.593
	c-7.551,8.136-11.393,18.056-13.333,26.61h6.069v41h-41v-41h9.458c2.193-12.963,7.544-29.562,20.277-43.397
	c0.27-0.293,0.559-0.564,0.833-0.853H37.086c-3.779,4.952-9.724,8.167-16.419,8.167C9.271,141.334,0,132.063,0,120.667
	S9.271,100,20.667,100c6.696,0,12.641,3.215,16.419,8.167h63.081v-8h41v5.953c12.156-2.645,21.911-7.847,29.1-15.593
	c7.551-8.136,11.393-18.056,13.333-26.61h-6.069v-41h41v41h-9.457c-2.193,12.963-7.545,29.562-20.277,43.396
	c-0.271,0.293-0.559,0.564-0.833,0.854h16.285c3.778-4.952,9.724-8.167,16.419-8.167c11.395,0,20.667,9.271,20.667,20.667
	S232.062,141.334,220.667,141.334z"/>
<g>
</g>
<g>
</g>
<g>
</g>
<g>
</g>
<g>
</g>
<g>
</g>
<g>
</g>
<g>
</g>
<g>
</g>
<g>
</g>
<g>
</g>
<g>
</g>
<g>
</g>
<g>
</g>
<g>
</g>
</svg>
